<svg width="114" height="30" viewBox="0 0 114 30" fill="none" xmlns="http://www.w3.org/2000/svg">
<path fill-rule="evenodd" clip-rule="evenodd" d="M47.2411 13.7266C47.2543 13.4104 47.1858 13.096 47.0417 12.8112C46.9148 12.5827 46.7248 12.392 46.4925 12.2598C46.2263 12.1164 45.9332 12.0245 45.6299 11.9896C45.2534 11.9401 44.8738 11.9165 44.4939 11.9187C43.5143 11.9322 42.5435 12.0989 41.6201 12.4124C41.4057 12.0466 41.2301 11.661 41.096 11.2616C40.9711 10.8419 40.9124 10.4066 40.9217 9.97026C42.2912 9.53133 43.7244 9.30148 45.1685 9.28915C46.624 9.20554 48.063 9.62164 49.2272 10.4628C49.7489 10.9443 50.1512 11.5319 50.4042 12.1822C50.6572 12.8326 50.7546 13.5291 50.6892 14.2203V21.2656C49.9905 21.4649 49.2816 21.6293 48.5651 21.7582C47.6346 21.9248 46.6894 22.0052 45.7427 21.9984C44.9586 22.0044 44.1759 21.9335 43.4068 21.787C42.7568 21.6684 42.1374 21.4289 41.5837 21.0818C41.0843 20.7633 40.6796 20.3263 40.4088 19.8133C40.118 19.2176 39.9788 18.5642 40.0026 17.9069C39.9781 17.2423 40.1563 16.5853 40.5154 16.0162C40.8477 15.5155 41.2994 15.0976 41.8332 14.7969C42.395 14.4842 43.0067 14.2622 43.6438 14.1398C44.3011 14.0078 44.9708 13.9409 45.6424 13.9404C46.1247 13.9404 46.6576 13.964 47.2411 14.0113V13.7266ZM47.2411 16.1459C47.0417 16.1147 46.8248 16.087 46.5916 16.063C46.3834 16.041 46.1741 16.0294 45.9646 16.0282C45.2925 15.996 44.6238 16.1379 44.0287 16.439C43.7952 16.5758 43.6053 16.7713 43.4797 17.0043C43.3541 17.2373 43.2977 17.4988 43.3165 17.7604C43.2938 18.0943 43.3907 18.4257 43.5911 18.6998C43.7648 18.912 43.9929 19.0776 44.2531 19.1803C44.5164 19.2835 44.7947 19.3471 45.0782 19.3689C45.3691 19.3921 45.6232 19.4037 45.8405 19.4037C46.0925 19.4038 46.3442 19.3841 46.5928 19.3448C46.8436 19.3064 47.0593 19.2704 47.2423 19.2391V16.1399L47.2411 16.1459ZM51.6634 9.59427C52.0212 9.51933 52.3847 9.47232 52.7505 9.45372C53.0915 9.4385 53.3786 9.4305 53.6119 9.42969C53.9462 9.42969 54.271 9.4377 54.5861 9.45372C54.8889 9.46863 55.1897 9.50883 55.4851 9.57385L57.5565 18.5412L59.9551 9.57024C60.5156 9.47261 61.0844 9.42556 61.654 9.42969C62.0866 9.44531 62.4452 9.46093 62.7273 9.47654C62.9804 9.48801 63.232 9.51935 63.4797 9.57024L65.8319 18.3766L67.8807 9.57024C68.164 9.52339 68.4298 9.48856 68.6806 9.46453C68.9314 9.44051 69.2135 9.42969 69.5295 9.42969C69.7627 9.42969 70.041 9.4381 70.367 9.45372C70.7321 9.47455 71.0951 9.52153 71.4529 9.59427L67.4305 21.7113C67.1121 21.76 66.791 21.7913 66.4688 21.805C66.1278 21.8202 65.8406 21.8282 65.6074 21.829C65.3567 21.829 65.0775 21.821 64.7699 21.805C64.4713 21.7895 64.1747 21.7494 63.8834 21.6849L61.5349 13.6533L59.1112 21.7077C58.7843 21.7556 58.4549 21.7868 58.1245 21.8014C57.7834 21.8166 57.4963 21.8246 57.2631 21.8254C57.0299 21.8262 56.759 21.8182 56.4506 21.8014C56.152 21.7859 55.8554 21.7457 55.5641 21.6813L51.6634 9.59427ZM79.3734 13.7278C79.3866 13.4116 79.3182 13.0972 79.1741 12.8124C79.0464 12.5844 78.8566 12.3939 78.6249 12.261C78.3585 12.1178 78.0655 12.0259 77.7622 11.9908C77.3858 11.9414 77.0062 11.9177 76.6262 11.9199C75.6466 11.9334 74.6759 12.1001 73.7524 12.4136C73.538 12.0478 73.3624 11.6622 73.2283 11.2628C73.103 10.8431 73.0438 10.4079 73.0528 9.97146C73.7695 9.74065 74.5052 9.56787 75.252 9.45492C75.9295 9.34968 76.6145 9.29466 77.3008 9.29035C78.7563 9.20674 80.1953 9.62284 81.3595 10.464C81.8811 10.9456 82.2831 11.5333 82.5362 12.1836C82.7892 12.8339 82.8867 13.5303 82.8215 14.2215V21.2668C82.1229 21.4662 81.4139 21.6305 80.6975 21.7594C79.7669 21.926 78.8218 22.0064 77.8751 21.9996C77.091 22.0056 76.3082 21.9348 75.5392 21.7882C74.8888 21.6696 74.269 21.4301 73.7148 21.083C73.2161 20.7641 72.8119 20.3271 72.5412 19.8145C72.2488 19.2204 72.1075 18.5683 72.1287 17.9117C72.1042 17.2471 72.2824 16.5901 72.6415 16.021C72.9736 15.5184 73.4257 15.0988 73.9606 14.7969C74.5224 14.4842 75.1341 14.2622 75.7711 14.1398C76.4284 14.0078 77.0982 13.9409 77.7698 13.9404C78.2521 13.9404 78.785 13.964 79.3684 14.0113V13.7266L79.3734 13.7278ZM79.3734 16.1471C79.1741 16.1159 78.9572 16.0882 78.7239 16.0642C78.5157 16.0422 78.3065 16.0306 78.097 16.0294C77.4249 15.9972 76.7561 16.1391 76.1611 16.4402C75.9273 16.5768 75.7373 16.7722 75.6117 17.0053C75.4861 17.2383 75.4298 17.5 75.4489 17.7616C75.4262 18.0955 75.523 18.4269 75.7235 18.701C75.8971 18.9132 76.1252 19.0788 76.3855 19.1815C76.6487 19.2847 76.927 19.3483 77.2105 19.3701C77.5014 19.3929 77.756 19.4049 77.9716 19.4049C78.2236 19.405 78.4753 19.3853 78.7239 19.346C78.9747 19.3068 79.1912 19.2716 79.3734 19.2403V16.1411V16.1471ZM85.0446 9.57144C85.2954 9.52419 85.5327 9.48896 85.7568 9.46573C86.0017 9.44141 86.2478 9.42978 86.494 9.4309C86.7402 9.43067 86.9861 9.44632 87.23 9.47775C87.4716 9.50898 87.709 9.54902 87.9422 9.59787C88.0038 9.70478 88.0502 9.81912 88.0801 9.93782C88.1215 10.0868 88.1591 10.2429 88.1917 10.4075C88.2243 10.5721 88.2544 10.7367 88.2795 10.9C88.3046 11.0634 88.3259 11.2015 88.3422 11.3109C88.7209 10.8138 89.1757 10.3744 89.6913 10.0075C90.2729 9.60935 90.9757 9.40701 91.69 9.4321C91.8555 9.4321 92.0473 9.44051 92.2642 9.45612C92.4249 9.46322 92.5842 9.48699 92.7394 9.527C92.7753 9.70562 92.8 9.88612 92.8134 10.0676C92.8297 10.2718 92.8385 10.4832 92.8385 10.7018C92.8385 10.9685 92.826 11.258 92.8009 11.5703C92.778 11.8706 92.7323 12.1689 92.6642 12.4629C92.4621 12.4302 92.2573 12.4145 92.0523 12.416H91.6398C91.3217 12.4188 91.0042 12.4461 90.6907 12.4977C90.3233 12.559 89.9781 12.7086 89.6876 12.9325C89.3348 13.2143 89.0636 13.5784 88.9002 13.9896C88.6641 14.6216 88.5581 15.2915 88.5879 15.9621V21.7389C88.2903 21.7856 87.9902 21.8169 87.6889 21.8326C87.3893 21.8482 87.0971 21.8567 86.8113 21.8567C86.5254 21.8567 86.2395 21.8482 85.9486 21.8326C85.6577 21.817 85.353 21.7858 85.0371 21.7389V9.57024L85.0446 9.57144ZM96.3367 12.1073H94.6578C94.606 11.8944 94.5683 11.6785 94.545 11.461C94.5206 11.2464 94.508 11.0306 94.5074 10.8147C94.5069 10.3957 94.5574 9.97807 94.6578 9.57024H99.7986V21.7113C99.2209 21.8033 98.6364 21.8503 98.0508 21.8519C97.4731 21.8497 96.8965 21.8027 96.3267 21.7113V12.1013L96.3367 12.1073ZM107.778 21.9936C106.841 22.014 105.91 21.8505 105.042 21.5131C104.302 21.2158 103.643 20.7577 103.119 20.1749C102.6 19.5858 102.21 18.9033 101.97 18.1676C101.705 17.3626 101.575 16.5226 101.583 15.6786C101.576 14.8268 101.707 13.9791 101.97 13.1656C102.206 12.4212 102.597 11.7302 103.119 11.1343C103.645 10.5503 104.303 10.0886 105.042 9.78406C105.908 9.43852 106.84 9.27074 107.778 9.29155C108.72 9.27164 109.656 9.43935 110.527 9.78406C111.274 10.0883 111.94 10.5497 112.475 11.1343C113.003 11.7266 113.394 12.4187 113.624 13.1656C113.879 13.9806 114.006 14.8276 114 15.6786C114.007 16.5218 113.88 17.3611 113.624 18.1676C113.39 18.9058 112.999 19.5894 112.475 20.1749C111.941 20.7583 111.275 21.2162 110.527 21.5131C109.652 21.8504 108.715 22.0138 107.773 21.9936H107.778ZM107.778 19.4578C108.174 19.4871 108.57 19.4118 108.924 19.2399C109.277 19.0681 109.575 18.8065 109.784 18.4835C110.244 17.6165 110.455 16.6482 110.396 15.6774C110.455 14.7067 110.244 13.7384 109.784 12.8713C109.575 12.5484 109.277 12.2869 108.924 12.1151C108.57 11.9433 108.174 11.8679 107.778 11.8971C107.386 11.8686 106.992 11.9445 106.642 12.1164C106.292 12.2883 105.997 12.5495 105.792 12.8713C105.332 13.7382 105.121 14.7066 105.18 15.6774C105.121 16.6482 105.332 17.6166 105.792 18.4835C105.997 18.8043 106.291 19.0648 106.64 19.2364C106.989 19.408 107.381 19.4842 107.773 19.4566L107.778 19.4578ZM99.7535 5.8836C99.7614 6.26528 99.6506 6.64059 99.435 6.96167C99.2195 7.28276 98.9091 7.53508 98.5433 7.68647C98.1775 7.83785 97.7729 7.88144 97.3811 7.81168C96.9893 7.74192 96.6281 7.56196 96.3435 7.29476C96.059 7.02755 95.8639 6.68521 95.7831 6.31137C95.7024 5.93752 95.7398 5.54912 95.8903 5.19567C96.0409 4.84223 96.298 4.53975 96.6287 4.32681C96.9594 4.11387 97.3488 4.00011 97.7473 4.00003C98.2718 3.99714 98.7761 4.19325 99.1502 4.54551C99.5242 4.89777 99.7375 5.37754 99.7434 5.87999L99.7535 5.8836Z" fill="#ffffff"/>
<path fill-rule="evenodd" clip-rule="evenodd" d="M14.8926 20.8429C13.758 20.8441 12.6485 20.5088 11.7045 19.8793C10.7605 19.2498 10.0245 18.3545 9.58958 17.3066C9.15463 16.2587 9.04032 15.1053 9.2611 13.9924C9.48188 12.8795 10.0278 11.8571 10.8299 11.0546C11.6319 10.252 12.654 9.70545 13.7668 9.48395C14.8795 9.26245 16.033 9.37601 17.0813 9.81025C18.1295 10.2445 19.0254 10.9799 19.6555 11.9234C20.2856 12.8669 20.6217 13.9762 20.6212 15.1107C20.621 15.864 20.4725 16.6099 20.1839 17.3058C19.8954 18.0016 19.4726 18.6338 18.9397 19.1663C18.4068 19.6987 17.7742 20.1209 17.0781 20.4088C16.382 20.6967 15.6359 20.8446 14.8826 20.8441L14.8926 20.8429ZM2.0279 22.529C0.643187 20.1437 -0.0569579 17.4227 0.00443532 14.6652C0.0658285 11.9078 0.886381 9.22064 2.37589 6.89926C3.8654 4.57787 5.96618 2.71212 8.44726 1.50714C10.9283 0.302157 13.6937 -0.195399 16.4392 0.0691734C19.1847 0.333746 21.8041 1.3502 24.0094 3.00679C26.2147 4.66338 27.9205 6.89595 28.9393 9.45904C29.9581 12.0221 30.2504 14.8165 29.7841 17.5349C29.3177 20.2534 28.1108 22.7906 26.2961 24.8676L22.4212 20.9929C23.8744 19.1273 24.5833 16.7887 24.4105 14.4303C24.2377 12.0718 23.1955 9.86152 21.4858 8.22768C19.7762 6.59385 17.5209 5.65283 15.1569 5.58701C12.793 5.52118 10.4888 6.33523 8.69087 7.87139C6.89295 9.40756 5.72935 11.5564 5.42555 13.9016C5.12176 16.2468 5.69941 18.6212 7.04656 20.5648C8.39371 22.5083 10.4144 23.8826 12.7171 24.4212C15.0198 24.9599 17.4405 24.6245 19.51 23.4802L23.4374 27.41C21.0831 29.0084 18.3226 29.9042 15.4783 29.9927C12.634 30.0813 9.82318 29.3589 7.37402 27.91L1.33792 29.9423C1.15996 30.0024 0.968819 30.0118 0.78581 29.9696C0.6028 29.9274 0.435126 29.8351 0.301479 29.7032C0.167831 29.5712 0.0734703 29.4047 0.0289251 29.2223C-0.0156201 29.0398 -0.00860264 28.8486 0.0491997 28.6699L2.0279 22.529Z" fill="#ffffff"/>
</svg>
