<svg xmlns="http://www.w3.org/2000/svg" width="76" height="91" fill="#265e9a"  xmlns:v="https://vecta.io/nano"><path d="M19.374 73.659l4.64 6.551h-3.782l-4.406-6.551 4.25-6.629h3.548l-4.25 6.629zm-3.665-6.59V80.21h-3.002V67.069h3.002zm15.324 8.305v4.835h-3.002v-4.796l-4.484-8.344h3.509l.78 1.911 1.053 2.535.507 1.365.078.312c.117-.585.702-1.989 1.716-4.211l.858-1.911h3.47l-4.484 8.305zm13.725-8.305v2.418h-3.197V80.21H38.52V69.486h-3.197v-2.418h9.436zm8.968 10.762v2.418h-8.188V67.108h8.072v2.418h-5.069v3.002h4.562v2.379h-4.562v3.002h5.186v-.078zm9.514-1.443c0 1.17-.429 2.145-1.326 2.885-.858.741-2.028 1.092-3.47 1.092-1.56 0-2.807-.273-3.782-.819v-3.041c1.17.858 2.457 1.287 3.782 1.287.468 0 .819-.117 1.131-.351a1.11 1.11 0 0 0 .468-.936.93.93 0 0 0-.078-.351.92.92 0 0 0-.234-.351c-.117-.117-.195-.195-.312-.273s-.234-.156-.429-.234-.351-.195-.468-.234c-.117-.078-.312-.156-.585-.273l-.624-.273c-.858-.39-1.521-.858-2.028-1.443s-.78-1.326-.78-2.301c0-1.131.429-2.028 1.248-2.73s1.989-1.053 3.431-1.053c1.326 0 2.457.234 3.392.663v2.808a6.29 6.29 0 0 0-3.275-.897c-.507 0-.897.117-1.17.312s-.39.468-.39.819c0 .312.156.624.468.858.312.273.819.507 1.482.819l1.014.468c.273.156.585.312.936.585a3.88 3.88 0 0 1 .819.741c.195.273.39.585.507.975s.273.78.273 1.248zM1.168 89.286h-.46v-2.76h.403l.058.633c.115-.23.345-.403.518-.518a1.53 1.53 0 0 1 .69-.173h.288c.058 0 .173.058.288.115l-.115.403c-.115-.058-.173-.058-.23-.058H2.32a.97.97 0 0 0-.575.173c-.173.115-.345.345-.518.633v1.553h-.058zm5.118.058c-.23 0-.403-.058-.575-.115a1.24 1.24 0 0 1-.46-.288c-.115-.116-.23-.288-.345-.46-.058-.172-.115-.403-.115-.633s.058-.403.115-.575a1.25 1.25 0 0 1 .288-.46c.115-.115.288-.23.46-.288s.345-.115.518-.115.345.057.518.115.288.173.403.288a.92.92 0 0 1 .23.403c.057.173.058.345.058.518v.172.115H5.193c.058.288.173.575.345.69.173.173.46.23.748.23.173 0 .288 0 .46-.057.115-.058.288-.115.403-.173l.173.288c-.115.115-.288.172-.46.23s-.345.115-.575.115zm-.058-2.53c-.115 0-.23 0-.345.058s-.173.115-.288.172c-.058.058-.173.173-.23.288s-.115.23-.115.345h1.783a.92.92 0 0 0-.23-.633.74.74 0 0 0-.575-.23zm4.083 2.53c-.115 0-.23 0-.345-.058s-.23-.115-.288-.172l-.23-.23c-.058-.115-.058-.23-.058-.345 0-.172.058-.288.115-.403a.59.59 0 0 1 .345-.287c.172-.058.345-.173.633-.23a4.03 4.03 0 0 1 .92-.115c0-.115 0-.172-.058-.287a.43.43 0 0 0-.115-.23c-.058-.057-.115-.115-.23-.172s-.23-.058-.345-.058c-.173 0-.345.058-.518.115s-.288.172-.46.23l-.173-.345c.058-.057.173-.115.23-.115.115-.058.173-.115.288-.115.115-.058.23-.058.345-.115.115 0 .23-.058.345-.058a1.29 1.29 0 0 1 .863.288c.172.23.288.46.288.805v1.668h-.403l-.057-.345c-.173.115-.345.23-.518.288-.172.23-.345.287-.575.287zm.115-.403c.172 0 .288-.057.46-.115s.288-.172.46-.287v-.69c-.288 0-.518.058-.748.115l-.46.172c-.115.058-.23.115-.23.173-.058.058-.058.172-.058.23s0 .172.058.23.058.115.115.115c.057.057.115.057.173.057h.23zm5.003.403c-.23 0-.403-.058-.575-.115a1.25 1.25 0 0 1-.46-.288c-.115-.115-.23-.288-.345-.46-.057-.172-.115-.403-.115-.633s.058-.46.115-.633.173-.345.345-.46a1.25 1.25 0 0 1 .46-.288c.172-.057.402-.115.575-.115.23 0 .402.058.575.115s.288.173.402.288l-.23.288c-.115-.115-.23-.172-.345-.23s-.23-.058-.402-.058-.288 0-.46.058c-.115.058-.23.115-.345.23s-.172.23-.23.345-.057.287-.057.46 0 .287.057.403a1.18 1.18 0 0 0 .23.345c.115.115.23.172.345.23s.287.058.46.058a1.09 1.09 0 0 0 .46-.115c.115-.057.288-.172.402-.23l.23.287-.518.345a1.11 1.11 0 0 1-.575.172zm3.566-.058h-.46V85.26h.46v1.093l-.058.633c.115-.172.288-.287.46-.403a.97.97 0 0 1 .575-.173c.345 0 .575.115.748.288s.23.46.23.805v1.725h-.46V87.56c0-.288-.058-.46-.173-.575s-.288-.172-.46-.172c-.058 0-.172 0-.23.058-.058 0-.115.057-.23.115-.057.058-.115.115-.23.173-.057.058-.172.115-.23.23v1.898h.058zm9.029 0h-.46v-2.76h.402l.058.46c.115-.172.288-.287.46-.403a.97.97 0 0 1 .575-.173c.345 0 .575.115.748.288s.23.46.23.805v1.725h-.46V87.56c0-.288-.058-.46-.172-.575s-.288-.172-.46-.172c-.058 0-.172 0-.23.058-.058 0-.115.057-.23.115a.8.8 0 0 1-.23.173c-.058.058-.172.115-.23.23v1.898zm5.406.058c-.23 0-.403-.058-.575-.115a1.24 1.24 0 0 1-.46-.288c-.115-.116-.23-.288-.345-.46-.058-.172-.115-.403-.115-.633s.057-.403.115-.575a1.25 1.25 0 0 1 .288-.46c.115-.115.288-.23.46-.288s.345-.115.518-.115.345.057.518.115.288.173.402.288a.93.93 0 0 1 .23.403c.057.173.058.345.058.518v.172.115h-2.185c0 .288.115.575.345.69.172.173.46.23.748.23.172 0 .288 0 .46-.057.115-.058.288-.115.403-.173l.173.288c-.115.115-.288.172-.46.23s-.345.115-.575.115zm-.058-2.53c-.115 0-.23 0-.345.058s-.172.115-.288.172c-.057.058-.173.173-.23.288s-.115.23-.115.345h1.725c0-.287-.115-.517-.23-.633-.115-.172-.288-.23-.518-.23zm3.968 2.473h-.575l-.575-2.76h.46l.345 1.61c0 .115.058.23.058.403 0 .115.057.23.057.403 0-.115.057-.288.057-.403s.058-.23.115-.403l.345-1.438h.46l.345 1.438c.057.115.057.23.115.403.057.115.057.23.057.403 0-.115.057-.288.057-.403s.058-.23.058-.403l.345-1.61h.403l-.575 2.76h-.575l-.345-1.323a2.68 2.68 0 0 1-.115-.805l-.115.805-.402 1.323zm8.799 0h-.46v-4.026h.46v1.093l-.057.633c.172-.172.287-.287.46-.403a.97.97 0 0 1 .575-.173c.345 0 .575.115.748.288s.23.46.23.805v1.725h-.46v-1.668c0-.288-.057-.46-.173-.575s-.287-.172-.46-.172c-.058 0-.173 0-.23.058-.058 0-.115.057-.23.115-.057.058-.115.115-.23.173-.057.058-.172.115-.23.23v1.898h.057zm5.348.058c-.23 0-.402-.058-.575-.115a1.23 1.23 0 0 1-.46-.288c-.115-.116-.23-.288-.345-.46-.058-.172-.115-.403-.115-.633s.057-.403.115-.575a1.25 1.25 0 0 1 .287-.46c.115-.115.288-.23.46-.288s.345-.115.518-.115.345.057.518.115.288.173.403.288a.92.92 0 0 1 .23.403c.057.173.057.345.057.518v.172.115h-2.185c0 .288.115.575.345.69.172.173.46.23.748.23.173 0 .288 0 .46-.057.115-.058.288-.115.403-.173l.172.288c-.115.115-.288.172-.46.23-.115.057-.345.115-.575.115zm-.057-2.53c-.115 0-.23 0-.345.058s-.173.115-.288.172c-.057.058-.172.173-.23.288s-.115.23-.115.345h1.725c0-.287-.115-.517-.23-.633-.058-.172-.288-.23-.518-.23zm5.003 2.473h-.46V86.93h-1.265v-.403h1.725v2.76zm-.288-3.336c-.115 0-.172-.057-.288-.115a.44.44 0 0 1-.115-.287c0-.115.058-.173.115-.288a.44.44 0 0 1 .288-.115c.115 0 .173.058.288.115.057.115.057.23.057.345s-.057.172-.115.288c-.058 0-.115.057-.23.057zm4.198 4.601c-.403 0-.69-.058-.92-.172s-.345-.345-.345-.575c0-.115.058-.23.115-.345a.59.59 0 0 1 .345-.288l-.172-.172c-.057-.058-.057-.173-.057-.288 0-.058 0-.172.057-.288a.45.45 0 0 1 .23-.23c-.115-.115-.173-.23-.23-.345s-.115-.288-.115-.403c0-.172.058-.287.115-.403s.115-.23.23-.288.23-.172.345-.172c.115-.058.288-.058.403-.058.172 0 .288 0 .403.058h1.15v.403h-.748c.057.058.115.173.172.23a.63.63 0 0 1 .057.287c0 .172 0 .288-.057.403s-.115.23-.23.287l-.345.173c-.115 0-.288.057-.403.057h-.23c-.057 0-.172-.057-.23-.057-.172.115-.23.172-.23.345 0 .115.058.173.173.23s.23.058.402.058h.633c.345 0 .633.058.805.172s.23.288.23.518c0 .115-.057.23-.115.345a.69.69 0 0 1-.287.287c-.115.057-.288.172-.46.23-.23-.058-.46 0-.69 0zm0-2.473c.172 0 .345-.058.46-.172s.173-.288.173-.46c0-.115 0-.172-.058-.287s-.057-.173-.115-.23-.115-.115-.23-.115c-.058-.058-.172-.058-.23-.058s-.173 0-.23.058-.172.115-.23.172-.115.115-.115.23c-.057.057-.057.172-.057.287 0 .172.057.345.172.46a1.08 1.08 0 0 0 .46.115zm.058 2.128c.172 0 .287 0 .402-.058.173 0 .288-.058.345-.115a.8.8 0 0 0 .23-.173c.058-.058.058-.115.058-.23s-.058-.23-.173-.288-.288-.058-.46-.058h-.517-.23c-.057 0-.115 0-.172-.057-.115.057-.23.172-.288.23s-.058.172-.058.23c0 .172.058.287.23.345.115.115.345.172.633.172zm3.796-.92h-.46v-4.026h.46v1.093l-.057.633c.115-.172.288-.287.46-.403a.97.97 0 0 1 .575-.173c.345 0 .575.115.748.288s.23.46.23.805v1.725h-.46v-1.668c0-.288-.057-.46-.172-.575s-.288-.172-.46-.172c-.058 0-.172 0-.23.058-.058 0-.115.057-.23.115-.058.058-.115.115-.23.173-.058.058-.173.115-.23.23v1.898h.057zm5.751.058c-.172 0-.345 0-.518-.058-.115-.057-.23-.115-.345-.23l-.172-.345c-.058-.115-.058-.288-.058-.46V86.93h-.748v-.345h.805l.058-.863h.402v.863h1.38v.403h-1.38v1.323c0 .115 0 .23.058.345 0 .115.058.172.115.23a.77.77 0 0 0 .23.172c.115.057.23.057.345.057s.23 0 .345-.057a.44.44 0 0 0 .288-.115l.115.345c-.115.058-.23.058-.403.115-.172-.058-.345-.058-.518-.058zm4.083 0c-.288 0-.518-.058-.748-.115s-.403-.172-.575-.288l.23-.288c.173.115.345.23.518.288s.403.115.69.115a1.15 1.15 0 0 0 .518-.115c.115-.057.172-.173.172-.288v-.172c0-.058-.058-.115-.115-.115-.058-.058-.173-.058-.288-.115s-.287-.058-.46-.115c-.345-.057-.633-.172-.805-.287s-.288-.288-.288-.518c0-.115 0-.23.058-.288a.45.45 0 0 1 .23-.23l.345-.172c.115-.058.288-.058.518-.058s.403.058.633.115c.172.057.345.172.517.23l-.23.288c-.115-.058-.288-.173-.403-.23-.172-.058-.345-.058-.518-.058-.23 0-.403.058-.518.115s-.115.173-.115.288.058.23.173.287.345.115.633.173l.575.172c.172.058.287.115.345.172s.173.115.173.23.058.172.058.287 0 .23-.058.345-.115.172-.23.287-.23.115-.402.173c-.288-.173-.46-.115-.633-.115zM37.781.829a.66.66 0 0 0-.925 0L9.934 27.75a.66.66 0 0 0 0 .925L23.059 41.8 9.934 54.924l.757.757 13.04-13.04 13.124 13.124c.168.168.337.168.505.168s.337-.084.505-.168l26.922-26.921a.66.66 0 0 0 0-.925L37.781.829zm0 1.935l25.491 25.491-25.491 25.491V2.764zm-26.5 25.575L36.772 2.848v25.323L23.9 41.043 11.281 28.339zm25.491 1.178V53.83L24.657 41.716l12.115-12.199z"/></svg>